<svg width="456" height="456" viewBox="0 0 456 456" fill="none" xmlns="http://www.w3.org/2000/svg">
<g clip-path="url(#clip0)">
<path d="M455.731 0H0V455.731H455.731V0Z" fill="#1BD741"/>
<path d="M68.4939 387.41L90.8169 308.126C76.4619 283.739 68.9039 255.992 68.9039 227.488C68.9039 139.723 140.306 68.3208 228.071 68.3208C315.836 68.3208 387.237 139.723 387.237 227.488C387.237 315.253 315.836 386.655 228.071 386.655C200.724 386.655 173.946 379.655 150.257 366.363L68.4939 387.41ZM154.437 337.406L159.309 340.381C179.963 352.99 203.741 359.655 228.071 359.655C300.948 359.655 360.237 300.365 360.237 227.488C360.237 154.611 300.948 95.3208 228.071 95.3208C155.194 95.3208 95.9039 154.611 95.9039 227.488C95.9039 252.881 103.121 277.54 116.773 298.799L120.054 303.908L107.199 349.566L154.437 337.406Z" fill="white"/>
<path d="M183.359 153.407L173.031 152.844C169.787 152.667 166.605 153.751 164.153 155.881C159.146 160.229 151.14 168.635 148.681 179.589C145.014 195.922 150.681 215.922 165.348 235.922C180.015 255.922 207.348 287.922 255.681 301.589C271.256 305.993 283.508 303.024 292.961 296.977C300.448 292.188 305.609 284.501 307.469 275.811L309.118 268.109C309.642 265.661 308.399 263.177 306.125 262.129L271.22 246.04C268.954 244.996 266.267 245.656 264.743 247.631L251.04 265.395C250.005 266.737 248.233 267.269 246.633 266.707C237.249 263.409 205.815 250.244 188.567 217.02C187.819 215.579 188.005 213.83 189.066 212.601L202.162 197.451C203.5 195.904 203.838 193.729 203.034 191.849L187.988 156.648C187.187 154.774 185.392 153.518 183.359 153.407Z" fill="white"/>
</g>
<defs>
<clipPath id="clip0">
<rect width="455.731" height="455.731" rx="90" fill="white"/>
</clipPath>
</defs>
</svg>
