<svg width="204" height="64" viewBox="0 0 204 64" fill="none" xmlns="http://www.w3.org/2000/svg">
<rect y="64" width="64" height="204" rx="32" transform="rotate(-90 0 64)" fill="#1FC043"/>
<path d="M29.108 26.2565L31.592 26.2565L34.058 35.6165L34.094 35.6165L36.902 26.2565L39.242 26.2565L41.996 35.6165L42.032 35.6165L44.552 26.2565L46.964 26.2565L43.238 39.0005L41.042 39.0005L38.054 29.4425L38.018 29.4425L35.03 39.0005L32.834 39.0005L29.108 26.2565ZM48.4743 26.2565L50.7423 26.2565L50.7423 31.4045L56.7003 31.4045L56.7003 26.2565L58.9683 26.2565L58.9683 39.0005L56.7003 39.0005L56.7003 33.3485L50.7423 33.3485L50.7423 39.0005L48.4743 39.0005L48.4743 26.2565ZM65.777 26.2565L67.739 26.2565L73.229 39.0005L70.637 39.0005L69.449 36.0845L63.923 36.0845L62.771 39.0005L60.233 39.0005L65.777 26.2565ZM68.657 34.1405L66.695 28.9565L64.697 34.1405L68.657 34.1405ZM75.9917 28.2365L72.0857 28.2365L72.0857 26.2565L82.1657 26.2565L82.1657 28.2365L78.2597 28.2365L78.2597 39.0005L75.9917 39.0005L75.9917 28.2365ZM90.1461 28.9205C89.9061 28.6085 89.5641 28.3505 89.1201 28.1465C88.6881 27.9305 88.2501 27.8225 87.8061 27.8225C87.5421 27.8225 87.2781 27.8585 87.0141 27.9305C86.7501 27.9905 86.5101 28.0925 86.2941 28.2365C86.0781 28.3685 85.8981 28.5485 85.7541 28.7765C85.6221 28.9925 85.5561 29.2565 85.5561 29.5685C85.5561 29.8565 85.6161 30.1025 85.7361 30.3065C85.8561 30.5105 86.0181 30.6845 86.2221 30.8285C86.4381 30.9725 86.6961 31.0985 86.9961 31.2065C87.2961 31.3145 87.6261 31.4225 87.9861 31.5305C88.3941 31.6625 88.8141 31.8125 89.2461 31.9805C89.6901 32.1485 90.0921 32.3705 90.4521 32.6465C90.8241 32.9225 91.1241 33.2705 91.3521 33.6905C91.5921 34.1105 91.7121 34.6325 91.7121 35.2565C91.7121 35.9405 91.5861 36.5405 91.3341 37.0565C91.0821 37.5605 90.7461 37.9805 90.3261 38.3165C89.9061 38.6525 89.4141 38.9045 88.8501 39.0725C88.2861 39.2405 87.6921 39.3245 87.0681 39.3245C86.2401 39.3245 85.4301 39.1745 84.6381 38.8745C83.8461 38.5625 83.1981 38.1065 82.6941 37.5065L84.3141 35.9945C84.6261 36.4265 85.0401 36.7685 85.5561 37.0205C86.0841 37.2725 86.6001 37.3985 87.1041 37.3985C87.3681 37.3985 87.6381 37.3685 87.9141 37.3085C88.1901 37.2365 88.4361 37.1225 88.6521 36.9665C88.8801 36.8105 89.0601 36.6185 89.1921 36.3905C89.3361 36.1505 89.4081 35.8565 89.4081 35.5085C89.4081 35.1725 89.3301 34.8965 89.1741 34.6805C89.0181 34.4525 88.8081 34.2605 88.5441 34.1045C88.2801 33.9365 87.9681 33.7925 87.6081 33.6725C87.2481 33.5525 86.8701 33.4265 86.4741 33.2945C86.0901 33.1745 85.7061 33.0305 85.3221 32.8625C84.9381 32.6945 84.5901 32.4725 84.2781 32.1965C83.9781 31.9205 83.7321 31.5845 83.5401 31.1885C83.3481 30.7805 83.2521 30.2765 83.2521 29.6765C83.2521 29.0285 83.3841 28.4705 83.6481 28.0025C83.9241 27.5345 84.2781 27.1505 84.7101 26.8505C85.1541 26.5385 85.6521 26.3105 86.2041 26.1665C86.7681 26.0105 87.3381 25.9325 87.9141 25.9325C88.5621 25.9325 89.2161 26.0465 89.8761 26.2745C90.5481 26.5025 91.1301 26.8445 91.6221 27.3005L90.1461 28.9205ZM102.164 26.2565L104.126 26.2565L109.616 39.0005L107.024 39.0005L105.836 36.0845L100.31 36.0845L99.1577 39.0005L96.6197 39.0005L102.164 26.2565ZM105.044 34.1405L103.082 28.9565L101.084 34.1405L105.044 34.1405ZM110.877 26.2565L115.035 26.2565C115.767 26.2565 116.427 26.3225 117.015 26.4545C117.603 26.5865 118.107 26.8025 118.527 27.1025C118.947 27.4025 119.271 27.7865 119.499 28.2545C119.727 28.7225 119.841 29.2865 119.841 29.9465C119.841 30.6545 119.709 31.2485 119.445 31.7285C119.181 32.2085 118.821 32.5985 118.365 32.8985C117.921 33.1865 117.399 33.3965 116.799 33.5285C116.199 33.6605 115.563 33.7265 114.891 33.7265L113.145 33.7265L113.145 39.0005L110.877 39.0005L110.877 26.2565ZM114.729 31.8185C115.101 31.8185 115.455 31.7945 115.791 31.7465C116.127 31.6865 116.427 31.5905 116.691 31.4585C116.955 31.3145 117.165 31.1225 117.321 30.8825C117.477 30.6425 117.555 30.3305 117.555 29.9465C117.555 29.5745 117.477 29.2745 117.321 29.0465C117.165 28.8065 116.955 28.6205 116.691 28.4885C116.439 28.3565 116.145 28.2725 115.809 28.2365C115.485 28.1885 115.149 28.1645 114.801 28.1645L113.145 28.1645L113.145 31.8185L114.729 31.8185ZM121.863 26.2565L126.021 26.2565C126.753 26.2565 127.413 26.3225 128.001 26.4545C128.589 26.5865 129.093 26.8025 129.513 27.1025C129.933 27.4025 130.257 27.7865 130.485 28.2545C130.713 28.7225 130.827 29.2865 130.827 29.9465C130.827 30.6545 130.695 31.2485 130.431 31.7285C130.167 32.2085 129.807 32.5985 129.351 32.8985C128.907 33.1865 128.385 33.3965 127.785 33.5285C127.185 33.6605 126.549 33.7265 125.877 33.7265L124.131 33.7265L124.131 39.0005L121.863 39.0005L121.863 26.2565ZM125.715 31.8185C126.087 31.8185 126.441 31.7945 126.777 31.7465C127.113 31.6865 127.413 31.5905 127.677 31.4585C127.941 31.3145 128.151 31.1225 128.307 30.8825C128.463 30.6425 128.541 30.3305 128.541 29.9465C128.541 29.5745 128.463 29.2745 128.307 29.0465C128.151 28.8065 127.941 28.6205 127.677 28.4885C127.425 28.3565 127.131 28.2725 126.795 28.2365C126.471 28.1885 126.135 28.1645 125.787 28.1645L124.131 28.1645L124.131 31.8185L125.715 31.8185Z" fill="#F4F4F4"/>
<path d="M156 30.997V31.003C156 37.6195 161.382 43 168 43C170.625 43 173.058 42.154 175.034 40.7155L179.492 42.211L178.017 37.5985C179.274 35.701 180 33.4375 180 30.997C180 24.3805 174.616 19 168 19C161.384 19 156 24.3805 156 30.997ZM172.945 24.0145C173.763 24.304 174.441 25.453 174.639 26.3695C174.772 26.9965 174.879 27.8155 173.736 30.5725C172.275 34.099 168.691 36.37 168.459 36.547C168.226 36.7165 166.562 37.972 164.84 37.972C163.118 37.972 162.279 37.0975 161.919 36.745C161.624 36.4555 161.488 35.977 161.488 35.518C161.488 35.3695 161.496 35.236 161.502 35.116C161.517 34.7635 161.538 34.5865 162.095 34.354C162.792 34.0645 164.514 33.3595 164.691 33.2755C164.868 33.19 165.108 33.1045 165.34 33.2245C165.581 33.337 165.687 33.436 165.891 33.613C166.095 33.79 166.251 33.958 166.47 34.135C166.66 34.297 166.865 34.48 167.217 34.276C167.562 34.072 168.712 33.367 169.636 32.329C170.829 30.9895 171.21 29.9035 171.372 29.515C171.492 29.2255 171.464 28.8805 171.239 28.669C170.949 28.4005 170.469 28.069 169.997 27.7315C169.658 27.4915 169.615 27.1885 169.735 26.8705C169.848 26.5465 170.695 24.832 170.871 24.4795C171.048 24.127 171.132 23.8945 171.281 23.809C171.429 23.725 172.126 23.725 172.945 24.0145Z" fill="white"/>
</svg>
