<svg width="64" height="204" viewBox="0 0 64 204" fill="none" xmlns="http://www.w3.org/2000/svg">
<rect width="64" height="204" rx="32" fill="#1FC043"/>
<path d="M37.744 29.108L37.744 31.592L28.384 34.058L28.384 34.094L37.744 36.902L37.744 39.242L28.384 41.996L28.384 42.032L37.744 44.552L37.744 46.964L25 43.238L25 41.042L34.558 38.054L34.558 38.018L25 35.03L25 32.834L37.744 29.108ZM37.744 48.4743L37.744 50.7423L32.596 50.7423L32.596 56.7003L37.744 56.7003L37.744 58.9683L25 58.9683L25 56.7003L30.652 56.7003L30.652 50.7423L25 50.7423L25 48.4743L37.744 48.4743ZM37.744 65.777L37.744 67.739L25 73.229L25 70.637L27.916 69.449L27.916 63.923L25 62.771L25 60.233L37.744 65.777ZM29.86 68.657L35.044 66.695L29.86 64.697L29.86 68.657ZM35.764 75.9917L35.764 72.0857L37.744 72.0857L37.744 82.1657L35.764 82.1657L35.764 78.2597L25 78.2597L25 75.9917L35.764 75.9917ZM35.08 90.1461C35.392 89.9061 35.65 89.5641 35.854 89.1201C36.07 88.6881 36.178 88.2501 36.178 87.8061C36.178 87.5421 36.142 87.2781 36.07 87.0141C36.01 86.7501 35.908 86.5101 35.764 86.2941C35.632 86.0781 35.452 85.8981 35.224 85.7541C35.008 85.6221 34.744 85.5561 34.432 85.5561C34.144 85.5561 33.898 85.6161 33.694 85.7361C33.49 85.8561 33.316 86.0181 33.172 86.2221C33.028 86.4381 32.902 86.6961 32.794 86.9961C32.686 87.2961 32.578 87.6261 32.47 87.9861C32.338 88.3941 32.188 88.8141 32.02 89.2461C31.852 89.6901 31.63 90.0921 31.354 90.4521C31.078 90.8241 30.73 91.1241 30.31 91.3521C29.89 91.5921 29.368 91.7121 28.744 91.7121C28.06 91.7121 27.46 91.5861 26.944 91.3341C26.44 91.0821 26.02 90.7461 25.684 90.3261C25.348 89.9061 25.096 89.4141 24.928 88.8501C24.76 88.2861 24.676 87.6921 24.676 87.0681C24.676 86.2401 24.826 85.4301 25.126 84.6381C25.438 83.8461 25.894 83.1981 26.494 82.6941L28.006 84.3141C27.574 84.6261 27.232 85.0401 26.98 85.5561C26.728 86.0841 26.602 86.6001 26.602 87.1041C26.602 87.3681 26.632 87.6381 26.692 87.9141C26.764 88.1901 26.878 88.4361 27.034 88.6521C27.19 88.8801 27.382 89.0601 27.61 89.1921C27.85 89.3361 28.144 89.4081 28.492 89.4081C28.828 89.4081 29.104 89.3301 29.32 89.1741C29.548 89.0181 29.74 88.8081 29.896 88.5441C30.064 88.2801 30.208 87.9681 30.328 87.6081C30.448 87.2481 30.574 86.8701 30.706 86.4741C30.826 86.0901 30.97 85.7061 31.138 85.3221C31.306 84.9381 31.528 84.5901 31.804 84.2781C32.08 83.9781 32.416 83.7321 32.812 83.5401C33.22 83.3481 33.724 83.2521 34.324 83.2521C34.972 83.2521 35.53 83.3841 35.998 83.6481C36.466 83.9241 36.85 84.2781 37.15 84.7101C37.462 85.1541 37.69 85.6521 37.834 86.2041C37.99 86.7681 38.068 87.3381 38.068 87.9141C38.068 88.5621 37.954 89.2161 37.726 89.8761C37.498 90.5481 37.156 91.1301 36.7 91.6221L35.08 90.1461ZM37.744 102.164L37.744 104.126L25 109.616L25 107.024L27.916 105.836L27.916 100.31L25 99.1577L25 96.6197L37.744 102.164ZM29.86 105.044L35.044 103.082L29.86 101.084L29.86 105.044ZM37.744 110.877L37.744 115.035C37.744 115.767 37.678 116.427 37.546 117.015C37.414 117.603 37.198 118.107 36.898 118.527C36.598 118.947 36.214 119.271 35.746 119.499C35.278 119.727 34.714 119.841 34.054 119.841C33.346 119.841 32.752 119.709 32.272 119.445C31.792 119.181 31.402 118.821 31.102 118.365C30.814 117.921 30.604 117.399 30.472 116.799C30.34 116.199 30.274 115.563 30.274 114.891L30.274 113.145L25 113.145L25 110.877L37.744 110.877ZM32.182 114.729C32.182 115.101 32.206 115.455 32.254 115.791C32.314 116.127 32.41 116.427 32.542 116.691C32.686 116.955 32.878 117.165 33.118 117.321C33.358 117.477 33.67 117.555 34.054 117.555C34.426 117.555 34.726 117.477 34.954 117.321C35.194 117.165 35.38 116.955 35.512 116.691C35.644 116.439 35.728 116.145 35.764 115.809C35.812 115.485 35.836 115.149 35.836 114.801L35.836 113.145L32.182 113.145L32.182 114.729ZM37.744 121.863L37.744 126.021C37.744 126.753 37.678 127.413 37.546 128.001C37.414 128.589 37.198 129.093 36.898 129.513C36.598 129.933 36.214 130.257 35.746 130.485C35.278 130.713 34.714 130.827 34.054 130.827C33.346 130.827 32.752 130.695 32.272 130.431C31.792 130.167 31.402 129.807 31.102 129.351C30.814 128.907 30.604 128.385 30.472 127.785C30.34 127.185 30.274 126.549 30.274 125.877L30.274 124.131L25 124.131L25 121.863L37.744 121.863ZM32.182 125.715C32.182 126.087 32.206 126.441 32.254 126.777C32.314 127.113 32.41 127.413 32.542 127.677C32.686 127.941 32.878 128.151 33.118 128.307C33.358 128.463 33.67 128.541 34.054 128.541C34.426 128.541 34.726 128.463 34.954 128.307C35.194 128.151 35.38 127.941 35.512 127.677C35.644 127.425 35.728 127.131 35.764 126.795C35.812 126.471 35.836 126.135 35.836 125.787L35.836 124.131L32.182 124.131L32.182 125.715Z" fill="#F4F4F4"/>
<path d="M33.003 156H32.997C26.3805 156 21 161.382 21 168C21 170.625 21.846 173.058 23.2845 175.034L21.789 179.492L26.4015 178.017C28.299 179.274 30.5625 180 33.003 180C39.6195 180 45 174.616 45 168C45 161.384 39.6195 156 33.003 156ZM39.9855 172.945C39.696 173.763 38.547 174.441 37.6305 174.639C37.0035 174.772 36.1845 174.879 33.4275 173.736C29.901 172.275 27.63 168.691 27.453 168.459C27.2835 168.226 26.028 166.562 26.028 164.84C26.028 163.118 26.9025 162.279 27.255 161.919C27.5445 161.624 28.023 161.488 28.482 161.488C28.6305 161.488 28.764 161.496 28.884 161.502C29.2365 161.517 29.4135 161.538 29.646 162.095C29.9355 162.792 30.6405 164.514 30.7245 164.691C30.81 164.868 30.8955 165.108 30.7755 165.341C30.663 165.581 30.564 165.687 30.387 165.891C30.21 166.095 30.042 166.251 29.865 166.47C29.703 166.661 29.52 166.865 29.724 167.217C29.928 167.562 30.633 168.712 31.671 169.636C33.0105 170.829 34.0965 171.21 34.485 171.372C34.7745 171.492 35.1195 171.464 35.331 171.239C35.5995 170.949 35.931 170.469 36.2685 169.997C36.5085 169.658 36.8115 169.615 37.1295 169.735C37.4535 169.848 39.168 170.695 39.5205 170.871C39.873 171.048 40.1055 171.132 40.191 171.281C40.275 171.429 40.275 172.126 39.9855 172.945Z" fill="white"/>
</svg>
